<svg xmlns="http://www.w3.org/2000/svg" viewBox="0 0 512 512"><rect width="512" height="512" rx="112" fill="#fde2ec"/><circle cx="420" cy="92" r="46" fill="#ffd166"/><path d="M0 430 Q256 360 512 430 V512 H0Z" fill="#b5d99c"/><g transform="translate(70 95.2) scale(3.0492)">
    <ellipse cx="61" cy="106" rx="42" ry="5" fill="#000" opacity="0.08"/>
    <ellipse cx="40" cy="101" rx="11" ry="6" fill="#7d8ca3"/>
    <ellipse cx="82" cy="101" rx="11" ry="6" fill="#7d8ca3"/>
    <path d="M62 14 C95 13 114 36 113 64 C112 90 92 102 61 102 C29 102 9 91 9 66 C9 36 30 15 62 14 Z"
      fill="#aab8cc" stroke="#7d8ca3" stroke-width="3"/>
    <path d="M30 34 C38 24 52 20 62 21" stroke="#dfe6f0" stroke-width="6" fill="none" stroke-linecap="round"/>
    <circle cx="92" cy="80" r="2.2" fill="#7d8ca3"/>
    <circle cx="86" cy="88" r="1.6" fill="#7d8ca3"/>
    <circle cx="25" cy="80" r="1.8" fill="#7d8ca3"/>
    <ellipse cx="33" cy="70" rx="7" ry="4.5" fill="#f5a3b5" opacity="0.8"/>
    <ellipse cx="89" cy="70" rx="7" ry="4.5" fill="#f5a3b5" opacity="0.8"/>
    
    <path d="M40 58 q6 -8 12 0" stroke="#3b2a2a" stroke-width="4" fill="none" stroke-linecap="round"/>
    <path d="M68 58 q6 -8 12 0" stroke="#3b2a2a" stroke-width="4" fill="none" stroke-linecap="round"/>
    <path d="M47 70 q13 16 26 0 z" fill="#3b2a2a"/>
    <path d="M53 76 q7 5 14 0 q-7 -4 -14 0z" fill="#f28ba0"/>
  </g></svg>
